/* XPM */
static char *kbreakout[] = {
/* columns rows colors chars-per-pixel */
"32 32 256 2 ",
"   c black",
".  c #0A0B0B",
"X  c #0E100B",
"o  c #1B1C1C",
"O  c #17191B",
"+  c #2D3D09",
"@  c #2D2D2D",
"#  c #36392D",
"$  c #2B3133",
"%  c gray22",
"&  c #363B3E",
"*  c #413F07",
"=  c #3B4313",
"-  c #3A432F",
";  c #3F403E",
":  c #4D5119",
">  c #6B4E00",
",  c #715400",
"<  c #755900",
"1  c #7A5D00",
"2  c #567806",
"3  c #7C6A00",
"4  c #4F523F",
"5  c #6F5C34",
"6  c #313941",
"7  c #2A4759",
"8  c #3C5160",
"9  c #4E4E4E",
"0  c #454748",
"q  c #51524F",
"w  c #5B5C5B",
"e  c #5E6158",
"r  c #61625C",
"t  c #696F5F",
"y  c #7C7D5A",
"u  c #466169",
"i  c #636464",
"p  c #6A6D66",
"a  c #666A6C",
"s  c #6E6F6F",
"d  c #6F7267",
"f  c #747573",
"g  c #7A7D74",
"h  c #7B7C79",
"j  c #8C5A1D",
"k  c #826600",
"l  c #876F00",
"z  c #886D00",
"x  c #8C7207",
"c  c #917E00",
"v  c #937F0D",
"b  c #836B19",
"n  c #8B7314",
"m  c #A86016",
"M  c #877D26",
"N  c #5E8305",
"B  c #668D05",
"V  c #6B9405",
"C  c #719B04",
"Z  c #7CAC04",
"A  c #7E8072",
"S  c #938503",
"D  c #998401",
"F  c #918900",
"G  c #9E8B01",
"H  c #9E890B",
"J  c #9E9C00",
"K  c #978A16",
"L  c #A18D01",
"P  c #A49401",
"I  c #A69A00",
"U  c #AA9A07",
"Y  c #A28E11",
"T  c #A89710",
"R  c #A49616",
"E  c #9ABA14",
"W  c #AFA101",
"Q  c #B4A501",
"!  c #B9AB06",
"~  c #B5B101",
"^  c #ADA219",
"/  c #B3A71A",
"(  c #9D8828",
")  c #9B8621",
"_  c #8F9527",
"`  c #98873D",
"'  c #A28D2F",
"]  c #A39123",
"[  c #A69A2E",
"{  c #AA9737",
"}  c #A99C3A",
"|  c #92B63D",
" . c #B2A229",
".. c #B2A03F",
"X. c #C6BC12",
"o. c #C0B733",
"O. c #C0B23F",
"+. c #AFD20E",
"@. c #B6DB0B",
"#. c #A3C812",
"$. c #A4E604",
"%. c #A6E804",
"&. c #B0E917",
"*. c #9FC636",
"=. c #9DC33C",
"-. c #A8CB3A",
";. c #B3D33E",
":. c #B0E625",
">. c #D5FB01",
",. c #D1FA0F",
"<. c #D8FC1B",
"1. c #D4C92B",
"2. c #DAFC21",
"3. c #E6FF21",
"4. c #E8F52B",
"5. c #87944C",
"6. c #85955E",
"7. c #A99745",
"8. c #AA9750",
"9. c #94AA5D",
"0. c #9CB454",
"q. c #B2A444",
"w. c #B6A64E",
"e. c #A5BC42",
"r. c #BFB24B",
"t. c #ADA555",
"y. c #B6A85A",
"u. c #8E9777",
"i. c #939871",
"p. c #93A16E",
"a. c #9FAD78",
"s. c #97A473",
"d. c #B6A966",
"f. c #BBAD6A",
"g. c #A8BC75",
"h. c #C4BA4F",
"j. c #C7BB66",
"k. c #C4B776",
"l. c #A0C644",
"z. c #A9CE46",
"x. c #B3D546",
"c. c #A7C653",
"v. c #AED15A",
"b. c #B3D45C",
"n. c #BCE05E",
"m. c #ACCE62",
"M. c #B1C964",
"N. c #BCE063",
"B. c #D0C941",
"V. c #CDC550",
"C. c #D0C552",
"Z. c #E0D855",
"A. c #F0FF48",
"S. c #ECFF51",
"D. c #F2F651",
"F. c #CAC267",
"G. c #C0D969",
"H. c #DBD36B",
"J. c #CCC175",
"K. c #D0CE7D",
"L. c #D7D277",
"P. c #E2DC77",
"I. c #DAF96E",
"U. c #C6E278",
"Y. c #DFFE7E",
"T. c #D1F47D",
"R. c #EBE669",
"E. c #F5FF64",
"W. c #E2FE7E",
"Q. c #F3FF7D",
"!. c #7A8F9A",
"~. c #858583",
"^. c #8B8B89",
"/. c #888983",
"(. c #91928E",
"). c #979890",
"_. c #989996",
"`. c #9C9D9B",
"'. c gray59",
"]. c #AFBF86",
"[. c #A1A29F",
"{. c #A4A4A3",
"}. c #ABABAA",
"|. c #B1B2AA",
" X c #B4B5B3",
".X c #B7B8B5",
"XX c #B8B8B7",
"oX c #BDBDBC",
"OX c #C4BB83",
"+X c #B8CF82",
"@X c #BCD383",
"#X c #BBC896",
"$X c #CEC382",
"%X c #D4CF89",
"&X c #D9D588",
"*X c #CFC895",
"=X c #CFC592",
"-X c #D2CC9B",
";X c #D7CD93",
":X c #DAD796",
">X c #E4DE8C",
",X c #E1DF9C",
"<X c #CBE58D",
"1X c #D2E88F",
"2X c #D9F88A",
"3X c #DEFC93",
"4X c #E7E386",
"5X c #EEFF81",
"6X c #E0FD88",
"7X c #FCFF83",
"8X c #FEFF8C",
"9X c #EFEC98",
"0X c #EBE69A",
"qX c #F4FF93",
"wX c #FFFF9E",
"eX c #F5FC99",
"rX c #D2C8A0",
"tX c #DAD6A3",
"yX c #DCD9A3",
"uX c #C5CEB0",
"iX c #E2DCAF",
"pX c #E1DBB0",
"aX c #E7E4A3",
"sX c #EBE9AB",
"dX c #EAE7A9",
"fX c #FFFFA3",
"gX c #FFFFAC",
"hX c #F4F1AA",
"jX c #EBE9B7",
"kX c #F1EEB7",
"lX c #F5F3B5",
"zX c #FEFFB2",
"xX c #F6F5BA",
"cX c #FFFFBD",
"vX c #C4C4C3",
"bX c #CACCC4",
"nX c #CBCBCB",
"mX c #D4D5D4",
"MX c #D7D8D7",
"NX c #D8D8D7",
"BX c #DADADA",
"VX c #EEEAC3",
"CX c #F1EEC8",
"ZX c #FBFFC3",
"AX c #F6F4CA",
"SX c #F8F7C9",
"DX c #FBFBCA",
"FX c #EDF6D9",
"GX c #FFFFDA",
"HX c #E2E3E2",
"JX c #FEFFE6",
"KX c #FDFFE9",
"LX c #FCFDF3",
"PX c #FFFFFC",
"IX c gray95",
"UX c None",
/* pixels */
"UXUXUXUXUXUXUXUXUXUXUXUXUXUXUXUXUXUXUXUXUXUXUXUXUXUXUXUXUXUXUXUX",
"UXUXUXUXUXUXUXUXUXUXUXUXUXUXUXUXUXUXUXUXUXUXUXUXUXUXUXUXUXUXUXUX",
"UXUXUXUXUXUXUXUXUXUXUXUXUXUXUXUXUXUXUXUXUXUXUXUXUXUXUXUXUXUXUXUX",
"UXUXUXUXUXUXUXUXUXUXUXUX:XyXyXtXOXd.UXUXUXUXUXUXUXUXUXUXUXUXUXUX",
"UXUXUXUXUXUXUXUXUXUXaXCXlXaX,X%XL.F.d.} UXUXUXUXUXUXUXUXUXUXUXUX",
"UXUXUXUXUXUXUXUXUXsXxXsXpXVXCXpXyXk.y.q.[ UXUXUXUXUXUXUXUXUXUXUX",
"UXUXUXUXUXUXUXUX$XkXdXDXAXAXCXjX:X$Xf.8.] ^ UXUXUXUXUXUXUXUXUXUX",
"UXUXUXUXUXUXUXUX*XsXDXDXDXSXkXaX&XJ.d.7.' T ~ UXUXUXUXUXUXUXUXUX",
"UXUXUXUXUXUXUXUX-XjXSXDXSXlX9X>XL.j.w.{ ] Y Q UXUXUXUXUXUXUXUXUX",
"UXUXUXUXUXUXUXUX-XrXAXxXhX9X4XH.L.h.{ ] H I W 4.UXUXUXUXUXUXUXUX",
"UXUXUXUXUXUXUXUXOX=X;X0X4XP.H.h.V. .R H D Q W D.A.UXUXUXUXUXUXUX",
"UXUXUXUXUXUXUXUXt.d.j.k.L.C.O.o. .Y D G P Q ! 7X7XUXUXUXUXUXUXUX",
"UXUXUXUXUXUXUXUXUX` } ..q.w.^ T D D G G W Q X.zXfXUXUXUXUXUXUXUX",
"UXUXUXUXUXUXUXUXUXK b n v S ( ( K D L P Q Q R.gXgXZXUXUXUXUXUXUX",
"UXUXUXUXUXUXUXUXUXUX3 , < 1 k z x v D P P 1.zXwXcXKXUXUXUXUXUXUX",
"UXUXUXUXUXUXUXUXUXUXUXUX> , 1 k x c D U Z.gXwX8XJXPXUXUXUXUXUXUX",
"UXUXUXUXUXUXUXUXUXUXUXUXUXJ F S L / B.eXzXwX8XGXPXLXUXUXUXUXUXUX",
"UXUXUXUXUXUXUXUXUXUXUXUXUXUXUXUXUX3.E.8XwXcXJXPXPXZXUXUXUXUXUXUX",
"UXUXUXUXUXUXUXUXUXUXUXUXUXUXUXUXUXUXUXeXDXKXLXJXcXQ.UXUXUXUXUXUX",
"UXUXUXUXUXUXUXUXUXUXUXUXUXUXUXUXUXUXUXUX5XqXqXQ.S.UXUXUXUXUXUXUX",
"UXUXUXUXUXUXUXUXUXUXUXUXUXUXUXUXUXUXUXUX,.2.<.>.>.UXUXUXUXUXUXUX",
"UXUXUXUXUXUXUXUXUXUXUXUXUXUXUXUXUXUXUXUX#.@.@.@.+.E UXUX& UXUXUX",
"UXUXm i.e NXBXMXmXmXnXnXbXvXvXvXvXoXoX|.M.x.;.-.e.5.r i f b UXUX",
"UXUXy ).9 {.{.nXvXXX{.`.{.}..XbXHXBXHXLX1Xx.I.W.G.s.w w w : UXUX",
"UXUX_.nXh !.nXvXc.*.f s f A ^.[.HXvXmXLXb.z.Y.6X0.d 0 8 s /.- UX",
"UXUXa ~.9 a mX#X&.p.A /.~.^.(..XIXXXmXFXz.n.6XU.6.e r & o   $ UX",
"UXUXh {.f 0 nX@X:._.h _._._.{.MXmXXXBX<Xl.T.3X9.p }.p @ % q $ UX",
"UXUXi '.w u |.uX:.]._.|. X}.oXHX}.bX2Xb.v.3X@Xg vXMX9 7 o @ $ UX",
"UXUX5 A % . r }.=.-.a.^.`.^.{.u.g.N.l.| m.+Xt  XMXs ; O   * UXUX",
"UXUXj _ = . . . X 2 Z C B B V C V B N 2 + . . . . . . o . M UXUX",
"UXUXUXUXUXUXUXUXUXUXUXUX%.%.%.$.$.UXUXUXUXUXUXUXUXUXUXUXUXUXUXUX",
"UXUXUXUXUXUXUXUXUXUXUXUXUXUXUXUXUXUXUXUXUXUXUXUXUXUXUXUXUXUXUXUX"
};
